<?xml version="1.0" encoding="UTF-8" standalone="no"?>
<!-- Created with Inkscape (http://www.inkscape.org/) -->

<svg
   xmlns:dc="http://purl.org/dc/elements/1.1/"
   xmlns:cc="http://creativecommons.org/ns#"
   xmlns:rdf="http://www.w3.org/1999/02/22-rdf-syntax-ns#"
   xmlns:svg="http://www.w3.org/2000/svg"
   xmlns="http://www.w3.org/2000/svg"
   xmlns:sodipodi="http://sodipodi.sourceforge.net/DTD/sodipodi-0.dtd"
   xmlns:inkscape="http://www.inkscape.org/namespaces/inkscape"
   width="601"
   height="601"
   viewBox="0 0 601 601.00002"
   version="1.1"
   id="svg8"
   inkscape:version="0.92.4 (5da689c313, 2019-01-14)"
   sodipodi:docname="drawing-1.svg">
  <defs
     id="defs2" />
  <sodipodi:namedview
     id="base"
     pagecolor="#ffffff"
     bordercolor="#666666"
     borderopacity="1.0"
     inkscape:pageopacity="0.0"
     inkscape:pageshadow="2"
     inkscape:zoom="0.68252377"
     inkscape:cx="297.45069"
     inkscape:cy="257.27566"
     inkscape:document-units="px"
     inkscape:current-layer="layer1"
     showgrid="false"
     units="px"
     inkscape:snap-global="false"
     inkscape:window-width="1920"
     inkscape:window-height="1057"
     inkscape:window-x="-8"
     inkscape:window-y="-8"
     inkscape:window-maximized="1" />
  <metadata
     id="metadata5">
    <rdf:RDF>
      <cc:Work
         rdf:about="">
        <dc:format>image/svg+xml</dc:format>
        <dc:type
           rdf:resource="http://purl.org/dc/dcmitype/StillImage" />
        <dc:title></dc:title>
      </cc:Work>
    </rdf:RDF>
  </metadata>
  <g
     inkscape:label="Layer 1"
     inkscape:groupmode="layer"
     id="layer1"
     transform="translate(0,-521.51965)">
    <path
       sodipodi:nodetypes="cscccccsccccc"
       inkscape:connector-curvature="0"
       id="path3880"
       d="m 134.71505,522.01934 c 35.8779,94.9792 54.7852,196.5129 54.7852,300 0,103.4871 -18.9073,205.02116 -54.7852,300.00036 h 6.416 l 159.369,-50.0001 159.36931,50.0001 h 6.416 c -35.8779,-94.9792 -54.7851,-196.51326 -54.7851,-300.00036 0,-103.4871 18.9072,-205.0208 54.7851,-300 h -6.416 l -159.36931,50 -159.369,-50 z"
       style="opacity:1;fill:#000000;fill-opacity:1;fill-rule:nonzero;stroke:none;stroke-width:76.3037796;stroke-linecap:square;stroke-linejoin:miter;stroke-miterlimit:4;stroke-dasharray:none;stroke-dashoffset:21.31999969;stroke-opacity:1;paint-order:stroke fill markers" />
    <path
       style="opacity:1;fill:#000000;fill-opacity:1;fill-rule:nonzero;stroke:none;stroke-width:76.3037796;stroke-linecap:square;stroke-linejoin:miter;stroke-miterlimit:4;stroke-dasharray:none;stroke-dashoffset:21.31999969;stroke-opacity:1;paint-order:stroke fill markers"
       d="m 0.50018,987.80451 c 94.97919,-35.8779 196.51289,-54.7852 300,-54.7852 103.48708,0 205.02098,18.9073 300.00008,54.7852 v -6.416 l -50,-159.369 50,-159.3693 v -6.416 c -94.9791,35.8779 -196.513,54.7851 -300.00009,54.7851 -103.4871,0 -205.0208,-18.9072 -299.99999,-54.7851 v 6.416 l 49.99999,159.3693 -49.99999,159.369 z"
       id="path3882"
       inkscape:connector-curvature="0"
       sodipodi:nodetypes="cscccccsccccc" />
    <path
       style="opacity:1;fill:#ffffff;fill-opacity:1;fill-rule:nonzero;stroke:none;stroke-width:76.57293701;stroke-linecap:square;stroke-linejoin:miter;stroke-miterlimit:4;stroke-dasharray:none;stroke-dashoffset:21.31999969;stroke-opacity:1;paint-order:stroke fill markers"
       d="m 141.13105,522.01924 c 35.6133,95.04 54.3691,196.552 54.3691,300.0001 0,103.4481 -18.7558,204.96026 -54.3691,300.00036 h 47.883 l 111.486,-50.0001 111.48631,50.0001 h 47.883 c -35.6134,-95.0401 -54.3692,-196.55226 -54.3692,-300.00036 0,-103.4481 18.7558,-204.9601 54.3692,-300.0001 h -47.883 l -111.48631,50 -111.486,-50 z"
       id="path3884"
       inkscape:connector-curvature="0"
       sodipodi:nodetypes="cscccccsccccc" />
    <path
       sodipodi:nodetypes="cscccccsccccc"
       inkscape:connector-curvature="0"
       id="path3886"
       d="m 0.50013,981.38846 c 95.03999,-35.6133 196.55199,-54.3691 300.0001,-54.3691 103.44813,0 204.96003,18.7558 300.00003,54.3691 v -47.883 l -50,-111.486 50,-111.4863 v -47.883 c -95.04,35.6134 -196.5519,54.3692 -300.00004,54.3692 -103.4481,0 -204.9601,-18.7558 -300.00009,-54.3692 v 47.883 l 49.99999,111.4863 -49.99999,111.486 z"
       style="opacity:1;fill:#ffffff;fill-opacity:1;fill-rule:nonzero;stroke:none;stroke-width:76.57293701;stroke-linecap:square;stroke-linejoin:miter;stroke-miterlimit:4;stroke-dasharray:none;stroke-dashoffset:21.31999969;stroke-opacity:1;paint-order:stroke fill markers" />
    <path
       style="opacity:1;fill:#000000;fill-opacity:1;fill-rule:nonzero;stroke:none;stroke-width:78.56217194;stroke-linecap:square;stroke-linejoin:miter;stroke-miterlimit:4;stroke-dasharray:none;stroke-dashoffset:21.31999969;stroke-opacity:1;paint-order:stroke fill markers"
       d="m 411.98616,522.01914 c -33.75355,95.4624 -51.48628,196.8158 -51.48628,300 0,103.1844 17.73273,204.53806 51.48628,300.00056 H 189.01405 c 33.7536,-95.4625 51.48632,-196.81616 51.48632,-300.00056 0,-103.1842 -17.73272,-204.5376 -51.48632,-300 z"
       id="path3888"
       inkscape:connector-curvature="0"
       sodipodi:nodetypes="csccscc" />
    <path
       sodipodi:nodetypes="csccscc"
       inkscape:connector-curvature="0"
       id="path3890"
       d="m 0.5,710.53319 c 95.4624,33.7536 196.8158,51.48633 300,51.48633 103.18436,0 204.53786,-17.73273 300.00026,-51.48633 V 933.50535 C 505.03786,899.75175 403.68436,882.01903 300.5,882.01903 c -103.1842,0 -204.5376,17.73272 -300,51.48632 z"
       style="opacity:1;fill:#000000;fill-opacity:1;fill-rule:nonzero;stroke:none;stroke-width:78.56217194;stroke-linecap:square;stroke-linejoin:miter;stroke-miterlimit:4;stroke-dasharray:none;stroke-dashoffset:21.31999969;stroke-opacity:1;paint-order:stroke fill markers" />
  </g>
</svg>
