<?xml version="1.0" encoding="UTF-8" standalone="no"?>
<svg
   version="1.0"
   width="600"
   height="320"
   id="USAF_roundel_svg"
   sodipodi:docname="Roundel_of_South_Korea_-_Naval_Aviation.svg"
   inkscape:version="1.3.2 (091e20e, 2023-11-25, custom)"
   xmlns:inkscape="http://www.inkscape.org/namespaces/inkscape"
   xmlns:sodipodi="http://sodipodi.sourceforge.net/DTD/sodipodi-0.dtd"
   xmlns="http://www.w3.org/2000/svg"
   xmlns:svg="http://www.w3.org/2000/svg"
   xmlns:rdf="http://www.w3.org/1999/02/22-rdf-syntax-ns#"
   xmlns:cc="http://creativecommons.org/ns#"
   xmlns:dc="http://purl.org/dc/elements/1.1/">
  <sodipodi:namedview
     id="namedview1"
     pagecolor="#ffffff"
     bordercolor="#000000"
     borderopacity="0.25"
     inkscape:showpageshadow="2"
     inkscape:pageopacity="0.0"
     inkscape:pagecheckerboard="0"
     inkscape:deskcolor="#d1d1d1"
     inkscape:zoom="1"
     inkscape:cx="477.5"
     inkscape:cy="160.5"
     inkscape:window-width="1600"
     inkscape:window-height="847"
     inkscape:window-x="-8"
     inkscape:window-y="-8"
     inkscape:window-maximized="1"
     inkscape:current-layer="USAF_roundel_svg" />
  <metadata
     id="metadata22">
    <rdf:RDF>
      <cc:Work
         rdf:about="">
        <dc:format>image/svg+xml</dc:format>
        <dc:type
           rdf:resource="http://purl.org/dc/dcmitype/StillImage" />
      </cc:Work>
    </rdf:RDF>
  </metadata>
  <defs
     id="defs20" />
  <rect
     style="fill:#ffffff;fill-opacity:1;stroke:#0047a0;stroke-width:15"
     x="7.5"
     id="rect8"
     width="585"
     height="90"
     y="115" />
  <rect
     style="fill:#cd2e3a;fill-opacity:1;stroke-width:1.42678"
     x="15"
     id="rect12"
     width="570"
     height="25"
     y="147.5" />
  <g
     transform="matrix(6.25,0,0,6.25,300,160)"
     id="g3033"
     style="stroke-width:1.01383;stroke-dasharray:none">
    <path
       d="M 19.969223,13.312781 A 24,24 0 1 0 -19.969223,-13.312781 18,18 0 1 0 9.9846114,6.6563906"
       id="path42"
       inkscape:connector-curvature="0"
       style="fill:#cd2e3a;fill-opacity:1;stroke-width:1.01383;stroke-dasharray:none" />
    <path
       d="M -19.969223,-13.312781 A 12,12 0 1 0 0,0 12,12 0 0 1 19.969223,13.312781 24,24 0 0 1 -19.969223,-13.312781"
       id="path44"
       inkscape:connector-curvature="0"
       style="fill:#0047a0;fill-opacity:1;stroke-width:1.01383;stroke-dasharray:none" />
    <path
       d="m -19.969223,-13.312781 c -3.676226,5.5143524 -2.186125,12.96477487 3.328224,16.6409978 C -11.126651,7.0044397 -3.6762254,5.5143525 0,0 3.6762255,-5.5143523 11.126651,-7.0044394 16.640999,-3.3282166 22.155348,0.3480063 23.645448,7.7984286 19.969223,13.312781"
       id="path4"
       inkscape:connector-curvature="0"
       style="fill:none;stroke:#ffffff;stroke-width:1.6;stroke-dasharray:none"
       sodipodi:nodetypes="csssc" />
  </g>
  <circle
     style="fill:none;stroke:#ffffff;stroke-width:15"
     id="path3430"
     cx="300"
     cy="160"
     r="152.5" />
</svg>
